# xmcd
#
# Track frame offsets:
# 150
# 16501
# 31874
# 47146
# 65945
# 83659
# 102465
# 121670
# 138442
# 151623
# 167750
# 185282
# 209120
# 227232
# 240611
# 256671
# 272555
# 293406
# 312449
# 330640
#
# Disc length: 4640 seconds
#
# Revision: 1
# Processed by: cddbd v1.4PL0 Copyright (c) Steve Scherf et al.
# Submitted via: CedeCatalogueitor 2.5 http://usuarios.lycos.es/kakasboy
#
DISCID=0b121e14
DTITLE=Joe Cocker - The Album Cd 2
DYEAR=1900
DGENRE=
TTITLE0=I Get Mad
TTITLE1=Dear Landlord
TTITLE2=In My Woman
TTITLE3=Oh Mama
TTITLE4=If I Love You
TTITLE5=Put Out The Light
TTITLE6=Jasmaica Say You Will
TTITLE7=It's A Sin When You Love Somebody
TTITLE8=Shje's So Good To Me
TTITLE9=I Can Stand A Little Rain
TTITLE10=Lucinda
TTITLE11=Just Like A Woman
TTITLE12=Do I Still Figure In Your Life?
TTITLE13=That's Your Business
TTITLE14=Something
TTITLE15=The Moon Is A Harsh Mistress
TTITLE16=Perfomance
TTITLE17=Where Am I Now
TTITLE18=I Think It's Going To Rain Today
TTITLE19=It's All Over But The Shoutin'
EXTD=
EXTT0=
EXTT1=
EXTT2=
EXTT3=
EXTT4=
EXTT5=
EXTT6=
EXTT7=
EXTT8=
EXTT9=
EXTT10=
EXTT11=
EXTT12=
EXTT13=
EXTT14=
EXTT15=
EXTT16=
EXTT17=
EXTT18=
EXTT19=
PLAYORDER=
